<svg width="135" height="40" xmlns="http://www.w3.org/2000/svg"><g fill="none" fill-rule="evenodd"><rect stroke="#666" fill="#FFF" width="135" height="39.981" rx="5"/><path d="M26.312 18.283h-7.327a.344.344 0 00-.342.345v3.602c0 .19.153.345.342.345h2.858v4.475s-.642.22-2.416.22c-2.093 0-5.017-.769-5.017-7.235 0-6.468 3.045-7.319 5.903-7.319 2.475 0 3.54.438 4.22.65.212.065.41-.148.41-.339l.817-3.48a.322.322 0 00-.131-.27c-.276-.197-1.956-1.142-6.202-1.142-4.89 0-9.908 2.092-9.908 12.152 0 10.06 5.744 11.56 10.585 11.56 4.007 0 6.439-1.723 6.439-1.723.1-.056.11-.197.11-.261V18.628a.344.344 0 00-.341-.345m38.073-8.938A.342.342 0 0064.043 9h-4.139a.344.344 0 00-.342.345v7.99h-6.451v-7.99A.343.343 0 0052.769 9H48.63a.344.344 0 00-.342.345v21.636c0 .19.154.346.342.346h4.14c.189 0 .34-.155.34-.346v-9.255h6.453l-.012 9.255c0 .19.154.346.343.346h4.15c.189 0 .34-.155.34-.346V9.345M34.27 12.201a2.681 2.681 0 00-2.684-2.682 2.682 2.682 0 100 5.366A2.683 2.683 0 0034.27 12.2m-.347 14.223V16.44a.345.345 0 00-.344-.345h-4.142c-.19 0-.36.195-.36.385v14.3c0 .421.263.546.604.546h3.732c.41 0 .51-.2.51-.552v-4.352m46.041-10.326h-4.1a.345.345 0 00-.341.348v10.674s-1.042.768-2.52.768-1.87-.676-1.87-2.133v-9.309a.345.345 0 00-.342-.348h-4.16a.346.346 0 00-.343.348v10.014c0 4.329 2.397 5.388 5.693 5.388 2.705 0 4.885-1.504 4.885-1.504s.104.792.151.887c.047.093.17.188.302.188l2.647-.012a.346.346 0 00.342-.347l-.002-14.614a.345.345 0 00-.342-.348M89.69 27.9c-1.425-.044-2.391-.693-2.391-.693v-6.88s.953-.586 2.122-.69c1.479-.133 2.904.315 2.904 3.854 0 3.732-.643 4.469-2.636 4.408zm1.619-12.241c-2.332 0-3.919 1.044-3.919 1.044V9.347A.344.344 0 0087.05 9H82.9a.344.344 0 00-.341.347V31.07c0 .192.153.348.342.348h2.88c.129 0 .227-.067.3-.185.07-.116.174-1.001.174-1.001s1.697 1.613 4.909 1.613c3.77 0 5.933-1.919 5.933-8.616 0-6.696-3.454-7.571-5.787-7.571zm-45.497.462h-3.095l-.004-4.118c0-.156-.08-.234-.259-.234h-4.218c-.164 0-.252.073-.252.232v4.255s-2.113.514-2.256.556a.345.345 0 00-.247.331v2.674c0 .193.152.348.341.348h2.162v6.433c0 4.779 3.328 5.248 5.574 5.248 1.026 0 2.254-.332 2.456-.407.123-.045.194-.173.194-.312l.004-2.942a.35.35 0 00-.343-.347c-.18 0-.641.074-1.116.074-1.52 0-2.036-.712-2.036-1.633v-6.114h3.095a.344.344 0 00.342-.348v-3.35a.344.344 0 00-.342-.346" fill="#11100F"/><path d="M113.995 9c-6.369 0-11.533 5.164-11.533 11.535 0 5.096 3.304 9.42 7.888 10.945.577.106.787-.25.787-.556 0-.274-.01-1-.015-1.962-3.209.697-3.886-1.546-3.886-1.546-.524-1.333-1.28-1.688-1.28-1.688-1.048-.715.079-.7.079-.7 1.157.08 1.766 1.188 1.766 1.188 1.03 1.763 2.7 1.254 3.358.958.104-.745.402-1.253.732-1.541-2.562-.291-5.254-1.281-5.254-5.701 0-1.26.45-2.29 1.187-3.095-.119-.292-.515-1.465.113-3.053 0 0 .968-.31 3.172 1.183.92-.257 1.907-.384 2.888-.39.98.006 1.966.133 2.887.39 2.202-1.493 3.169-1.183 3.169-1.183.63 1.588.234 2.76.115 3.053.74.805 1.186 1.836 1.186 3.095 0 4.431-2.697 5.406-5.266 5.692.413.356.782 1.06.782 2.136 0 1.541-.014 2.786-.014 3.164 0 .308.208.667.793.555 4.58-1.529 7.882-5.85 7.882-10.944 0-6.37-5.165-11.535-11.536-11.535" fill="#151513"/></g></svg>