<svg width="135" height="40" viewBox="0 0 135 40" xmlns="http://www.w3.org/2000/svg"><title>Artboard 1</title><g fill="none" fill-rule="evenodd"><rect stroke="#666" fill="#FFF" width="135" height="39.981" rx="5"/><g fill="#11100F"><path d="M26.312 18.283h-7.327a.344.344 0 0 0-.342.345v3.602c0 .19.153.345.342.345h2.858v4.475s-.642.22-2.416.22c-2.093 0-5.017-.77-5.017-7.235 0-6.468 3.045-7.32 5.903-7.32 2.475 0 3.54.44 4.22.65.212.066.41-.147.41-.338l.817-3.48c0-.09-.03-.196-.13-.27-.277-.197-1.957-1.142-6.203-1.142-4.89 0-9.908 2.092-9.908 12.152 0 10.06 5.743 11.56 10.584 11.56 4.007 0 6.44-1.723 6.44-1.723.1-.056.11-.197.11-.26V18.627a.344.344 0 0 0-.342-.345M64.385 9.345A.342.342 0 0 0 64.043 9h-4.14a.344.344 0 0 0-.34.345v7.99H53.11v-7.99A.343.343 0 0 0 52.77 9h-4.14a.344.344 0 0 0-.342.345V30.98c0 .192.154.347.342.347h4.14c.19 0 .34-.155.34-.346v-9.254h6.453l-.012 9.255c0 .192.155.347.344.347h4.15c.19 0 .34-.155.34-.346V9.346M34.27 12.2a2.68 2.68 0 0 0-2.684-2.68 2.682 2.682 0 0 0 0 5.365A2.683 2.683 0 0 0 34.27 12.2M33.923 26.423V16.44a.345.345 0 0 0-.344-.344h-4.143c-.19 0-.36.195-.36.385v14.302c0 .42.263.545.604.545h3.733c.41 0 .51-.2.51-.552v-4.352M79.964 16.096h-4.1a.345.345 0 0 0-.34.348v10.674s-1.043.768-2.52.768c-1.48 0-1.872-.676-1.872-2.133v-9.31a.345.345 0 0 0-.34-.347H66.63a.346.346 0 0 0-.342.348v10.014c0 4.33 2.397 5.388 5.693 5.388 2.706 0 4.886-1.504 4.886-1.504s.104.792.15.887a.36.36 0 0 0 .303.187l2.646-.012a.346.346 0 0 0 .342-.347l-.002-14.614a.345.345 0 0 0-.342-.348M89.69 27.9c-1.425-.044-2.39-.693-2.39-.693v-6.88s.952-.586 2.12-.69c1.48-.133 2.905.315 2.905 3.854 0 3.733-.643 4.47-2.636 4.41zm1.62-12.24c-2.333 0-3.92 1.043-3.92 1.043V9.347A.344.344 0 0 0 87.05 9H82.9a.344.344 0 0 0-.342.347V31.07c0 .193.153.35.342.35h2.88c.13 0 .227-.068.3-.186.07-.116.174-1 .174-1s1.697 1.612 4.91 1.612c3.77 0 5.932-1.92 5.932-8.616s-3.454-7.57-5.787-7.57zM45.812 16.12h-3.095l-.004-4.117c0-.156-.08-.234-.26-.234h-4.217c-.164 0-.252.072-.252.23v4.256s-2.113.514-2.256.556a.345.345 0 0 0-.247.33v2.675c0 .193.153.348.342.348h2.162v6.433c0 4.78 3.328 5.248 5.574 5.248 1.026 0 2.254-.332 2.456-.407.123-.046.194-.174.194-.313l.004-2.942a.35.35 0 0 0-.343-.347c-.18 0-.642.074-1.117.074-1.52 0-2.036-.712-2.036-1.633v-6.115h3.095c.19 0 .342-.155.342-.348v-3.35a.344.344 0 0 0-.342-.346"/></g><path d="M113.995 9c-6.37 0-11.533 5.164-11.533 11.535 0 5.096 3.304 9.42 7.888 10.945.577.106.787-.25.787-.556 0-.274-.01-1-.015-1.962-3.21.697-3.886-1.546-3.886-1.546-.524-1.333-1.28-1.688-1.28-1.688-1.048-.715.08-.7.08-.7 1.156.08 1.765 1.188 1.765 1.188 1.03 1.763 2.7 1.254 3.36.958.103-.745.4-1.253.73-1.54-2.56-.292-5.253-1.282-5.253-5.702 0-1.26.45-2.29 1.187-3.095-.12-.292-.515-1.465.113-3.053 0 0 .968-.31 3.172 1.183.92-.257 1.906-.384 2.887-.39.98.006 1.966.133 2.887.39 2.202-1.493 3.17-1.183 3.17-1.183.63 1.588.233 2.76.114 3.053.74.805 1.186 1.836 1.186 3.095 0 4.43-2.697 5.406-5.266 5.692.413.356.782 1.06.782 2.136 0 1.54-.014 2.786-.014 3.164 0 .308.208.667.793.555 4.58-1.53 7.88-5.85 7.88-10.945 0-6.37-5.164-11.535-11.535-11.535" fill="#151513"/></g></svg>