<?xml version="1.0" encoding="UTF-8" standalone="no"?>
<svg width="135px" height="40px" viewBox="0 0 135 40" version="1.1" xmlns="http://www.w3.org/2000/svg" xmlns:xlink="http://www.w3.org/1999/xlink" xmlns:sketch="http://www.bohemiancoding.com/sketch/ns">
    <!-- Generator: Sketch 3.4.2 (15855) - http://www.bohemiancoding.com/sketch -->
    <title>Artboard 1</title>
    <desc>Created with Sketch.</desc>
    <defs></defs>
    <g id="Page-1" stroke="none" stroke-width="1" fill="none" fill-rule="evenodd" sketch:type="MSPage">
        <g id="Artboard-1" sketch:type="MSArtboardGroup">
            <rect id="Rectangle-1" stroke="#666666" fill="#FFFFFF" sketch:type="MSShapeGroup" x="0" y="0" width="135" height="39.9807692" rx="5"></rect>
            <g id="GitHub_Logo" sketch:type="MSLayerGroup" transform="translate(9.519231, 8.134615)" fill="#11100F">
                <path d="M16.7924024,10.1486297 L9.46595729,10.1486297 C9.27696855,10.1486297 9.12356271,10.3030857 9.12356271,10.4931431 L9.12356271,14.0954712 C9.12356271,14.2855287 9.27696855,14.4401672 9.46595729,14.4401672 L12.3240261,14.4401672 L12.3240261,18.9157372 C12.3240261,18.9157372 11.6822632,19.1357364 9.90802027,19.1357364 C7.81480212,19.1357364 4.8906508,18.3665606 4.8906508,11.9002255 C4.8906508,5.43242985 7.93552979,4.58146176 10.7941432,4.58146176 C13.2686067,4.58146176 14.3346411,5.01963456 15.0128946,5.23068779 C15.2260289,5.29641371 15.4231872,5.08298704 15.4231872,4.89274702 L16.2405044,1.41219442 C16.2405044,1.32328185 16.2105494,1.21611209 16.1096102,1.14326586 C15.8342059,0.945722958 14.1536404,0 9.90802027,0 C5.01700638,0 0,2.09264026 0,12.1523574 C0,22.2124398 5.7440956,23.7115385 10.5844583,23.7115385 C14.592254,23.7115385 17.0235096,21.9891542 17.0235096,21.9891542 C17.1237227,21.9334698 17.1346154,21.7927067 17.1346154,21.7280763 L17.1346154,10.4931431 C17.1346154,10.3030857 16.9813911,10.1486297 16.7924024,10.1486297" id="Fill-1" sketch:type="MSShapeGroup"></path>
                <path d="M54.8653846,1.21056096 C54.8653846,1.01950394 54.7138314,0.865384615 54.5242077,0.865384615 L50.3850926,0.865384615 C50.1960154,0.865384615 50.0422764,1.01950394 50.0422764,1.21056096 C50.0422764,1.21147076 50.0433693,9.20092935 50.0433693,9.20092935 L43.5916104,9.20092935 L43.5916104,1.21056096 C43.5916104,1.01950394 43.4393286,0.865384615 43.2500692,0.865384615 L39.1111363,0.865384615 C38.9227877,0.865384615 38.7692308,1.01950394 38.7692308,1.21056096 L38.7692308,22.8460396 C38.7692308,23.0369147 38.9227877,23.1923077 39.1111363,23.1923077 L43.2500692,23.1923077 C43.4393286,23.1923077 43.5916104,23.0369147 43.5916104,22.8460396 L43.5916104,13.5917835 L50.0433693,13.5917835 C50.0433693,13.5917835 50.0320757,22.8453118 50.0320757,22.8460396 C50.0320757,23.0369147 50.1856326,23.1923077 50.3748919,23.1923077 L54.5238434,23.1923077 C54.7134671,23.1923077 54.8650203,23.0369147 54.8653846,22.8460396 L54.8653846,1.21056096" id="Fill-2" sketch:type="MSShapeGroup"></path>
                <path d="M24.75,4.06649193 C24.75,2.58324778 23.5488628,1.38461538 22.067033,1.38461538 C20.5866681,1.38461538 19.3846154,2.58324778 19.3846154,4.06649193 C19.3846154,5.54810454 20.5866681,6.75 22.067033,6.75 C23.5488628,6.75 24.75,5.54810454 24.75,4.06649193" id="Fill-3" sketch:type="MSShapeGroup"></path>
                <path d="M24.4038462,18.2879153 L24.4038462,8.30599351 C24.4038462,8.11648867 24.2500493,7.96153846 24.0600435,7.96153846 L19.9177707,7.96153846 C19.7277649,7.96153846 19.5576923,8.15649929 19.5576923,8.34600413 L19.5576923,22.6470721 C19.5576923,23.0673654 19.8210305,23.1923077 20.1619071,23.1923077 L23.8939942,23.1923077 C24.3034485,23.1923077 24.4038462,22.9924365 24.4038462,22.640343 L24.4038462,18.2879153" id="Fill-4" sketch:type="MSShapeGroup"></path>
                <path d="M70.4449813,7.96153846 L66.3448563,7.96153846 C66.1568423,7.96153846 66.0037399,8.117528 66.0037399,8.30958554 L66.0037399,18.9838837 C66.0037399,18.9838837 64.9622074,19.7511984 63.4837332,19.7511984 C62.0054407,19.7511984 61.6130477,19.075793 61.6130477,17.6182429 L61.6130477,8.30958554 C61.6130477,8.117528 61.460309,7.96153846 61.2721131,7.96153846 L57.1108927,7.96153846 C56.9230605,7.96153846 56.7692308,8.117528 56.7692308,8.30958554 L56.7692308,18.3231252 C56.7692308,22.6523841 59.1655919,23.7115385 62.4622022,23.7115385 C65.1665864,23.7115385 67.3471131,22.2071182 67.3471131,22.2071182 C67.3471131,22.2071182 67.4509391,22.999882 67.4978517,23.0939883 C67.5449461,23.1877285 67.6673189,23.2823841 67.7995106,23.2823841 L70.4467996,23.2706666 C70.6346318,23.2706666 70.7884615,23.1143109 70.7884615,22.9231688 L70.7871887,8.30958554 C70.7871887,8.117528 70.6339045,7.96153846 70.4449813,7.96153846" id="Fill-5" sketch:type="MSShapeGroup"></path>
                <path d="M80.1699392,19.7646521 C78.7457924,19.7211673 77.7797907,19.072732 77.7797907,19.072732 L77.7797907,12.1929959 C77.7797907,12.1929959 78.7328638,11.6068645 79.9020809,11.5019893 C81.3806734,11.3691597 82.8053665,11.8173456 82.8053665,15.3564248 C82.8053665,19.088445 82.1623973,19.8249462 80.1699392,19.7646521 L80.1699392,19.7646521 Z M81.7894715,7.52440784 C79.4574105,7.52440784 77.8712012,8.56840879 77.8712012,8.56840879 L77.8712012,1.21198416 C77.8712012,1.02013939 77.7184255,0.865384615 77.5297775,0.865384615 L73.3804316,0.865384615 C73.1917836,0.865384615 73.0384615,1.02013939 73.0384615,1.21198416 L73.0384615,22.9366683 C73.0384615,23.1283304 73.1917836,23.2843641 73.3809779,23.2843641 L76.2598631,23.2843641 C76.3895131,23.2843641 76.4876611,23.2173098 76.5601339,23.0998277 C76.6316964,22.9830765 76.7349429,22.0982153 76.7349429,22.0982153 C76.7349429,22.0982153 78.4316825,23.7115385 81.6436152,23.7115385 C85.4143904,23.7115385 87.5769231,21.79236 87.5769231,15.0958813 C87.5769231,8.39940269 84.1231712,7.52440784 81.7894715,7.52440784 L81.7894715,7.52440784 Z" id="Fill-6" sketch:type="MSShapeGroup"></path>
                <path d="M36.2931972,7.98646554 L33.1981846,7.98646554 C33.1981846,7.98646554 33.1934635,3.86925246 33.1934635,3.86833805 C33.1934635,3.71252294 33.1137504,3.63461538 32.9348952,3.63461538 L28.7171801,3.63461538 C28.5532143,3.63461538 28.4651486,3.70721937 28.4651486,3.86596059 L28.4651486,8.12161503 C28.4651486,8.12161503 26.35157,8.63551228 26.2086674,8.67702639 C26.0663095,8.71854051 25.9615385,8.8507639 25.9615385,9.00840782 L25.9615385,11.6826852 C25.9615385,11.8750766 26.1140648,12.0301602 26.3027252,12.0301602 L28.4651486,12.0301602 L28.4651486,18.4635686 C28.4651486,23.2420814 31.7931269,23.7115385 34.038895,23.7115385 C35.0649974,23.7115385 36.2924709,23.3796084 36.495113,23.3042612 C36.6176788,23.2589065 36.6888577,23.1310723 36.6888577,22.9924481 L36.6923077,20.0506149 C36.6923077,19.8587721 36.5314288,19.7035057 36.350213,19.7035057 C36.1699051,19.7035057 35.7085131,19.7773898 35.2335027,19.7773898 C33.713324,19.7773898 33.1981846,19.0654318 33.1981846,18.1438915 C33.1981846,17.2230828 33.198003,12.0301602 33.198003,12.0301602 L36.2931972,12.0301602 C36.4818577,12.0301602 36.6345656,11.8750766 36.6345656,11.6826852 L36.6345656,8.33302614 C36.6345656,8.14118336 36.4818577,7.98646554 36.2931972,7.98646554" id="Fill-7" sketch:type="MSShapeGroup"></path>
            </g>
            <path d="M113.995187,9 C107.626472,9 102.461538,14.1642252 102.461538,20.535065 C102.461538,25.631312 105.766274,29.9543059 110.349852,31.4795687 C110.926959,31.5857848 111.137267,31.2296069 111.137267,30.9237046 C111.137267,30.6503752 111.127353,29.9245654 111.121689,28.9622479 C107.913255,29.6590253 107.236305,27.4157419 107.236305,27.4157419 C106.711597,26.0830843 105.955339,25.7283226 105.955339,25.7283226 C104.908049,25.0131344 106.034647,25.0272966 106.034647,25.0272966 C107.192402,25.1087289 107.801374,26.2162084 107.801374,26.2162084 C108.830254,27.9786871 110.501387,27.4695581 111.15851,27.1742774 C111.26331,26.4293487 111.561423,25.9209278 111.890693,25.6327282 C109.329469,25.3416962 106.636538,24.3517624 106.636538,19.9317577 C106.636538,18.6727433 107.086186,17.6424474 107.824034,16.8366215 C107.705072,16.5448814 107.30924,15.3715479 107.937331,13.7839717 C107.937331,13.7839717 108.905313,13.4738208 111.108943,14.9665106 C112.028774,14.7101758 113.015875,14.5827165 113.996603,14.5777598 C114.976624,14.5827165 115.963017,14.7101758 116.884264,14.9665106 C119.086477,13.4738208 120.053044,13.7839717 120.053044,13.7839717 C120.682551,15.3715479 120.286719,16.5448814 120.168465,16.8366215 C120.907729,17.6424474 121.353836,18.6727433 121.353836,19.9317577 C121.353836,24.3630921 118.656656,25.3381556 116.087644,25.6235228 C116.501178,25.9797007 116.870102,26.6835591 116.870102,27.759882 C116.870102,29.3014312 116.85594,30.5455754 116.85594,30.9237046 C116.85594,31.2324393 117.064124,31.5914496 117.64902,31.4788606 C122.229057,29.9500573 125.53096,25.6298958 125.53096,20.535065 C125.53096,14.1642252 120.366027,9 113.995187,9" id="Fill-3" fill="#151513" sketch:type="MSShapeGroup"></path>
        </g>
    </g>
</svg>